<svg id="Layer_1" data-name="Layer 1" xmlns="http://www.w3.org/2000/svg" viewBox="0 0 50 50"><defs><style>.cls-1{fill:#0d83dd}</style></defs><title>Reports Icons Master</title><path class="cls-1" d="M37 35.92a2.94 2.94 0 0 1-2.21-.69 1.7 1.7 0 0 1-.38-1.23c0-.32.32-1.9 2.64-1.9a2.4 2.4 0 0 1 2.42 1.19 1 1 0 0 0 1.79-.69 4.11 4.11 0 0 0-3.43-2.37v-1.01a1 1 0 0 0-1.92 0v1.11a4 4 0 0 0-3.42 3.53 3.62 3.62 0 0 0 .9 2.64A4.7 4.7 0 0 0 37 37.84c2.76 0 2.92 1.34 2.92 1.47a1.09 1.09 0 0 0 0 .16 2 2 0 0 1-.4 1.49 3.42 3.42 0 0 1-2.54.81c-3.15 0-3.29-1.49-3.3-1.64a1 1 0 0 0-.94-1 1 1 0 0 0-1 .94 3.22 3.22 0 0 0 1 2.19 5.07 5.07 0 0 0 3.13 1.33v.91a1 1 0 1 0 1.92 0v-.86a4.58 4.58 0 0 0 3.23-1.46 3.9 3.9 0 0 0 .82-3c.01-1.18-1.05-3.26-4.84-3.26z"/><path class="cls-1" d="M36.88 23.75A13 13 0 0 0 29.49 26a9.36 9.36 0 0 0-5.1-3.82h-.11a1.31 1.31 0 0 1 0-2.59h.12C32 17.34 32.89 6.25 33 2.44h2.67a1.22 1.22 0 1 0 0-2.44H1.22a1.22 1.22 0 1 0 0 2.44H5c.06 3.81.91 14.9 8.56 17.14h.12a1.31 1.31 0 0 1 0 2.58h-.12C4.77 24.79 5 39 5 40.51H1.28a1.22 1.22 0 1 0 0 2.44h24a13.12 13.12 0 1 0 11.6-19.2zm-22.69.82a3.76 3.76 0 0 0 0-7.36c-6-1.79-6.68-11.41-6.75-14.78h23.07c-.07 3.37-.8 13-6.75 14.78a3.76 3.76 0 0 0 0 7.36 7.08 7.08 0 0 1 3.8 2.93l-15.19-2a6.35 6.35 0 0 1 1.82-.92zM7.44 40.51c0-.25-.23-8.19 2.87-12.87l15.54 2.1a13 13 0 0 0-1.6 10.77H7.44zm29.44 6.82a10.45 10.45 0 1 1 10.45-10.45 10.47 10.47 0 0 1-10.45 10.45z"/></svg>