<?xml version="1.0" standalone="no"?>
<!DOCTYPE svg PUBLIC "-//W3C//DTD SVG 20010904//EN"
 "http://www.w3.org/TR/2001/REC-SVG-20010904/DTD/svg10.dtd">
<svg version="1.0" xmlns="http://www.w3.org/2000/svg"
 width="900.000000pt" height="1029.000000pt" viewBox="0 0 900.000000 1029.000000"
 preserveAspectRatio="xMidYMid meet">
<metadata>
Created by potrace 1.10, written by Peter Selinger 2001-2011
</metadata>
<g transform="translate(0.000000,1029.000000) scale(0.100000,-0.100000)"
fill="#fffcfc" stroke="none">
<path d="M4357 10276 c-3 -8 -23 -18 -44 -22 -21 -3 -48 -12 -60 -20 -12 -8
-27 -14 -33 -14 -6 0 -42 -20 -79 -44 -121 -79 -209 -194 -267 -351 -18 -48
-19 -115 -19 -1795 0 -1656 1 -1748 18 -1795 35 -98 83 -178 146 -247 127
-138 287 -208 471 -208 282 0 512 170 617 455 17 48 18 128 18 1795 0 1680 -1
1747 -19 1795 -58 157 -141 265 -264 348 -39 26 -75 47 -81 47 -7 0 -22 6 -34
14 -12 8 -39 17 -60 20 -21 4 -41 14 -44 22 -4 11 -31 14 -133 14 -102 0 -129
-3 -133 -14z"/>
<path d="M6541 8437 c-49 -16 -94 -65 -108 -120 -10 -35 -13 -185 -13 -576 0
-487 1 -532 19 -584 34 -104 80 -166 246 -332 237 -237 332 -349 492 -583 24
-34 43 -65 43 -69 0 -3 6 -14 14 -22 32 -37 226 -415 226 -442 0 -6 6 -23 14
-37 20 -40 41 -95 75 -202 53 -170 72 -247 105 -415 62 -321 62 -794 0 -1120
-25 -135 -46 -228 -60 -275 -63 -210 -86 -279 -119 -355 -7 -16 -28 -66 -46
-110 -46 -108 -103 -219 -183 -350 -90 -150 -80 -135 -180 -270 -194 -261
-400 -467 -661 -661 -139 -102 -120 -90 -290 -191 -178 -107 -298 -164 -515
-249 -31 -12 -146 -48 -280 -88 -47 -14 -140 -35 -275 -60 -325 -62 -786 -62
-1110 0 -197 37 -243 49 -430 108 -280 89 -488 189 -790 379 -52 32 -268 197
-330 251 -89 78 -243 232 -321 321 -54 62 -219 278 -251 330 -194 307 -289
506 -379 790 -55 176 -61 196 -77 275 -63 299 -72 387 -72 705 0 274 9 409 40
560 28 143 48 231 61 275 8 25 23 74 33 110 11 36 34 103 51 150 18 47 39 103
47 125 33 90 197 409 229 446 8 8 14 18 14 22 0 4 24 41 53 82 28 42 59 87 67
99 70 106 238 296 424 481 105 103 173 180 194 217 61 107 62 115 62 701 0
569 -1 580 -51 633 -70 76 -151 71 -294 -15 -27 -17 -57 -34 -65 -38 -59 -28
-387 -259 -481 -338 -19 -16 -57 -48 -83 -70 -26 -21 -58 -48 -70 -60 -12 -11
-58 -51 -101 -90 -86 -78 -307 -312 -385 -408 -124 -153 -350 -464 -350 -482
0 -2 -13 -23 -29 -47 -15 -24 -41 -65 -56 -93 -15 -27 -49 -88 -75 -135 -76
-138 -182 -371 -246 -542 -49 -132 -70 -195 -103 -313 -5 -16 -19 -66 -31
-110 -13 -44 -26 -98 -30 -120 -4 -22 -12 -60 -18 -85 -30 -119 -59 -308 -82
-522 -16 -150 -12 -707 5 -878 22 -210 54 -416 83 -525 6 -22 18 -74 27 -115
9 -41 23 -95 30 -120 27 -89 106 -335 115 -355 5 -11 18 -44 29 -73 63 -158
85 -208 163 -367 43 -86 142 -267 181 -329 208 -333 411 -590 667 -846 234
-234 457 -415 743 -602 193 -126 508 -292 697 -368 30 -12 69 -27 85 -34 108
-47 386 -137 550 -179 365 -92 663 -127 1105 -127 461 0 755 35 1135 137 50
13 106 28 125 33 59 14 332 107 400 137 14 6 50 21 80 33 159 65 469 222 570
290 14 9 32 19 40 23 17 8 121 76 232 152 83 57 254 191 343 268 98 85 305
279 313 292 4 7 41 49 82 92 140 149 280 327 411 523 125 187 127 191 136 210
4 8 27 49 51 90 80 136 209 405 267 560 8 19 26 67 41 105 15 39 30 84 35 100
4 17 18 62 32 100 24 72 33 102 67 240 60 237 99 459 118 675 5 60 11 84 20
83 9 -2 12 73 12 352 0 279 -3 354 -12 352 -9 -1 -15 26 -21 93 -4 52 -14 132
-22 177 -8 45 -15 93 -15 108 0 14 -6 54 -14 88 -8 34 -22 98 -31 142 -31 151
-107 419 -151 538 -39 103 -47 124 -59 152 -7 17 -29 71 -50 120 -34 83 -177
377 -195 400 -4 6 -22 37 -40 70 -64 117 -213 340 -317 475 -118 153 -140 180
-226 274 -45 49 -88 97 -94 107 -7 9 -73 72 -146 140 -183 170 -214 198 -272
243 -27 22 -52 42 -55 45 -27 31 -379 276 -445 311 -11 5 -29 16 -40 22 -79
51 -190 101 -214 97 -3 -1 -21 -6 -40 -12z"/>
</g>
</svg>
