<?xml version="1.0" standalone="no"?>
<!DOCTYPE svg PUBLIC "-//W3C//DTD SVG 20010904//EN"
 "http://www.w3.org/TR/2001/REC-SVG-20010904/DTD/svg10.dtd">
<svg version="1.0" xmlns="http://www.w3.org/2000/svg"
 width="192.000000pt" height="192.000000pt" viewBox="0 0 192.000000 192.000000"
 preserveAspectRatio="xMidYMid meet">
<metadata>
Created by potrace 1.10, written by Peter Selinger 2001-2011
</metadata>
<g transform="translate(0.000000,192.000000) scale(0.050000,-0.050000)"
fill="#ffffff" stroke="none">
<path d="M1555 3492 c-17 -17 -40 -117 -55 -242 -22 -179 -33 -217 -68 -238
-23 -14 -88 -52 -144 -86 l-101 -60 -197 78 c-267 106 -250 114 -443 -214
-207 -354 -208 -335 9 -506 l177 -139 0 -165 0 -165 -177 -139 c-217 -171
-216 -152 -9 -506 193 -328 176 -320 443 -214 l197 78 101 -60 c56 -34 121
-72 144 -86 35 -21 46 -59 68 -238 35 -284 13 -270 420 -270 407 0 385 -14
420 270 22 179 33 217 68 238 23 14 88 52 144 86 l101 60 197 -78 c267 -106
250 -114 443 214 207 354 208 335 -9 506 l-177 139 0 165 0 165 177 139 c217
171 216 151 9 506 -192 329 -175 321 -443 214 l-197 -78 -101 60 c-56 34 -121
72 -144 86 -35 21 -46 59 -68 238 -15 125 -38 225 -55 242 -41 41 -689 41
-730 0z m584 -1053 c561 -255 394 -1079 -219 -1079 -483 0 -731 538 -429 933
126 165 447 237 648 146z"/>
</g>
</svg>
