<svg xmlns="http://www.w3.org/2000/svg" width="22" height="22" viewBox="0 0 22 22">
  <defs>
    <style>
      .cls-1 {
        fill: #fff;
        fill-rule: evenodd;
      }
    </style>
  </defs>
  <path class="cls-1" d="M16,20H6a4,4,0,0,1-4-4V6A4,4,0,0,1,6,2H16a4,4,0,0,1,4,4V16A4,4,0,0,1,16,20ZM10.442,8.409a1.6,1.6,0,0,1,.769-0.133,6.38,6.38,0,0,1,2.577.643L14.6,6.97A8.026,8.026,0,0,0,11.86,6.3V5.377H10.445V6.313A3.845,3.845,0,0,0,8.271,7.1a2.224,2.224,0,0,0-.725,1.764A2.794,2.794,0,0,0,7.789,10.1a2.515,2.515,0,0,0,.776.9,5.554,5.554,0,0,0,1.4.721q0.772,0.28,1.227.479a3.009,3.009,0,0,1,.649.355,0.476,0.476,0,0,1,.195.383,0.486,0.486,0,0,1-.27.468,1.943,1.943,0,0,1-.851.14,5.954,5.954,0,0,1-1.634-.27A9.837,9.837,0,0,1,7.56,12.6v2.269a8.124,8.124,0,0,0,2.885.67v1.278H11.86V15.494a3.545,3.545,0,0,0,2.123-.889,2.506,2.506,0,0,0,.728-1.866,2.3,2.3,0,0,0-.622-1.664,5.32,5.32,0,0,0-2.051-1.152q-0.7-.239-1.1-0.42a2.251,2.251,0,0,1-.557-0.328A0.483,0.483,0,0,1,10.22,8.8,0.431,0.431,0,0,1,10.442,8.409Z"/>
</svg>
