<svg data-name="Layer 1" xmlns="http://www.w3.org/2000/svg" viewBox="0 0 50 50"><path d="M48.85 28.18l-9.3-9.3a13.14 13.14 0 1 0-24-10.65H8.26a3 3 0 0 0-3 3v26H3a3 3 0 0 0-3 3v2.47A7.34 7.34 0 0 0 7.33 50H31.5a7.38 7.38 0 0 0 7.3-6.68V29.34l4.43 4.43a4 4 0 1 0 5.62-5.59zM20.24 5.64a10.61 10.61 0 1 1 15 15 10.61 10.61 0 1 1-15-15zm-12.91 42a4.92 4.92 0 0 1-4.91-4.92v-2.51a.56.56 0 0 1 .58-.56h20.61a.56.56 0 0 1 .56.56v2.47a7.33 7.33 0 0 0 1.66 4.64l.23.28H7.33zm29.08-4.86a4.91 4.91 0 0 1-9.83-.05v-2.52a3 3 0 0 0-3-3H7.7v-26a.56.56 0 0 1 .56-.56h6.58a13.27 13.27 0 0 0-.24 2.49 13.13 13.13 0 0 0 19.51 11.49l2.3 2.3v15.8zM47.06 32a1.5 1.5 0 0 1-2 0l-8.8-8.8.74-.76 1.23-1.23L47.06 30a1.42 1.42 0 0 1 0 2z" fill="#0d83dd"/></svg>