<svg xmlns="http://www.w3.org/2000/svg" viewBox="0 0 55.8289 52.0446"><defs><style>.a{fill:none;}.a,.b{stroke:#0d83dd;stroke-miterlimit:10;stroke-width:3px;}.b{fill:#fff;}.c{fill:#0d83dd;}</style></defs><title>Asset 2</title><path class="a" d="M46.1562,19.5989a5.5655,5.5655,0,0,1-1.4142,3.4143l-22.56,22.56a2.0059,2.0059,0,0,1-2.8284,0l-17.27-17.27a2.0058,2.0058,0,0,1,0-2.8285l22.56-22.56A5.565,5.565,0,0,1,28.0573,1.5H44.1562a2.0059,2.0059,0,0,1,2,2Z"/><circle class="a" cx="33.8075" cy="13.8488" r="4.4675"/><circle class="b" cx="41.0065" cy="37.2221" r="13.3225"/><path class="c" d="M41.8583,45.645V44.6392a5.1489,5.1489,0,0,0,3.6351-1.6372,4.3893,4.3893,0,0,0,.9238-3.3224c-.0527-1.34-1.2365-3.7206-5.4442-3.7206a3.3023,3.3023,0,0,1-2.4819-.7746,1.9161,1.9161,0,0,1-.4814-1.33c.0385-.3559.3622-2.1313,2.9633-2.1313,2.0838,0,2.6564,1.1858,2.72,1.3356a1.08,1.08,0,0,0,2.0174-.7709,4.6144,4.6144,0,0,0-3.8523-2.6637v-1.19a1.08,1.08,0,1,0-2.16,0v1.2442A4.5446,4.5446,0,0,0,35.86,33.6447a4.0707,4.0707,0,0,0,1.014,2.9718,5.2778,5.2778,0,0,0,4.0991,1.5023c3.1057,0,3.2776,1.509,3.2866,1.6546a1.2343,1.2343,0,0,0,.0152.1814,2.2932,2.2932,0,0,1-.4513,1.6773,3.8385,3.8385,0,0,1-2.8505.9132c-3.5428,0-3.7031-1.6747-3.7095-1.84a1.08,1.08,0,0,0-1.06-1.1,1.1229,1.1229,0,0,0-1.1,1.06A3.6193,3.6193,0,0,0,36.18,43.1243a5.7032,5.7032,0,0,0,3.5186,1.4969V45.645a1.08,1.08,0,1,0,2.16,0Z"/></svg>