<svg width="56" height="59" viewBox="0 0 56 59" xmlns="http://www.w3.org/2000/svg"><title>Payments Collected Icon</title><g fill="#0D83DD" fill-rule="evenodd"><path d="M51.33 51.116c-.204.47-.92 1.314-3.374 2.154a1.377 1.377 0 0 0-.92.238 1.486 1.486 0 0 1-.166.1c-.14.038-.284.078-.432.117-2.031.537-4.42.93-6.994 1.204-3.278.309-7.292.512-11.444.525-4.15-.013-8.166-.216-11.443-.525-2.573-.274-4.964-.667-6.995-1.204l-.432-.118a1.486 1.486 0 0 1-.166-.099 1.374 1.374 0 0 0-.92-.238c-2.454-.84-3.17-1.684-3.374-2.154-1.21-2.788-1.614-8.855.36-15.587 2.886-9.834 8.718-14.01 11.937-15.624l.048-.024c.803-.403 1.496-.75 2.179-.75h17.612c.683 0 1.376.347 2.18.75l.046.024c3.22 1.614 9.052 5.79 11.937 15.624 1.975 6.732 1.572 12.799.361 15.587M40.276 17.69c-1.022-.513-2.127-1.067-3.47-1.067H19.194c-1.343 0-2.448.554-3.423 1.043C9.514 20.802 4.808 26.9 2.473 34.859.61 41.215.505 48.13 2.215 52.067c.726 1.672 2.713 2.956 6.066 3.917 2.217.883 6.568 1.39 10.237 1.656 3.383.266 6.71.36 9.377.36h.21c2.664 0 5.989-.094 9.368-.36 3.67-.264 8.028-.762 10.246-1.646 3.353-.961 5.34-2.25 6.067-3.922 1.71-3.937 1.605-10.857-.26-17.213-2.334-7.96-7.04-14.057-13.25-17.17z" stroke="#0D83DD" stroke-width=".5"/><path d="M19.253 11.567c-.692 0-1.253.573-1.253 1.28 0 .708.561 1.282 1.253 1.282H36.38c.692 0 1.253-.574 1.253-1.281 0-.708-.561-1.281-1.253-1.281H19.253zM27.663 35.765c-1.53 0-2.622-.336-3.248-.999-.693-.732-.632-1.687-.63-1.715.05-.46.474-2.749 3.878-2.749 2.727 0 3.477 1.53 3.56 1.723a1.42 1.42 0 0 0 1.81.797c.731-.269 1.074-1.07.8-1.791-.048-.132-1.176-2.95-5.07-3.435V26.06c0-.77-.626-1.393-1.406-1.393-.78 0-1.406.624-1.406 1.393v1.604c-3.678.676-4.868 3.531-5.002 5.116-.022.22-.163 2.198 1.338 3.832 1.18 1.285 2.992 1.937 5.37 1.937 4.065 0 4.293 1.946 4.305 2.133 0 .074.01.162.021.234.002.012.193 1.259-.59 2.163-.844.973-2.494 1.178-3.73 1.178-4.637 0-4.847-2.16-4.855-2.373a1.402 1.402 0 0 0-1.387-1.418c-.748.033-1.424.598-1.44 1.367-.002.176-.014 1.764 1.387 3.17 1.063 1.068 2.636 1.703 4.583 1.93v1.32c0 .77.625 1.393 1.406 1.393.78 0 1.406-.623 1.406-1.393v-1.296c2.163-.192 3.74-.878 4.787-2.112 1.443-1.703 1.302-3.723 1.223-4.284-.069-1.727-1.603-4.797-7.11-4.797M14.395 3.069c2.29-1.683 6.481 1.205 9.025 3.442h-4.652c-2.481-.676-4.91-1.951-5.05-2.663-.018-.095.15-.39.677-.779m26.668 0c.528.388.696.684.677.78-.139.71-2.569 1.986-5.05 2.662h-4.693c2.557-2.24 6.77-5.13 9.066-3.442m-22.799 5.96c.007.003.014.003.02.005.039.01.078.017.118.023l.04.006c.05.006.101.01.153.01H36.864c.111 0 .223-.015.33-.043 1.527-.398 6.549-1.912 7.095-4.695.163-.833.005-2.085-1.675-3.32-2.92-2.148-6.705-.486-9.367 1.287-2.63 1.75-4.653 3.887-4.738 3.977-.068.072-.124.15-.172.232h-1.265a1.277 1.277 0 0 0-.168-.23c-.084-.09-2.097-2.227-4.714-3.978-2.651-1.773-6.425-3.436-9.346-1.288-1.68 1.235-1.837 2.487-1.674 3.32.546 2.783 5.568 4.297 7.094 4.695"/></g></svg>