<svg xmlns="http://www.w3.org/2000/svg" viewBox="0 0 49.0541 55.3332"><defs><style>.a{fill:#0d83dd;}</style></defs><title>Asset 1</title><path class="a" d="M49.0128,31.3459a1.448,1.448,0,0,0-1.75-1.0664,68.0772,68.0772,0,0,1-7.004,1.2653L41.2762,5.1067A2.692,2.692,0,0,0,39.485,2.4505a46.62,46.62,0,0,0-29.85.0042A2.7147,2.7147,0,0,0,7.7781,5.1335L8.7944,31.5447A68.0979,68.0979,0,0,1,1.7912,30.28a1.4491,1.4491,0,0,0-.6836,2.8164,104.3829,104.3829,0,0,0,23.4193,2.3187,104.38,104.38,0,0,0,23.4195-2.3187A1.4491,1.4491,0,0,0,49.0128,31.3459ZM38.3749,5.1324l-.7824,20.33a78.5,78.5,0,0,0-26.1317,0l-.7812-20.3A43.7165,43.7165,0,0,1,38.3749,5.1324ZM11.69,31.8843a1.416,1.416,0,0,0,.0109-.1755l-.1537-3.9961a76.1367,76.1367,0,0,1,25.9585,0l-.1538,3.9963a1.3985,1.3985,0,0,0,.0109.1756,127.2577,127.2577,0,0,1-12.8361.6319A127.27,127.27,0,0,1,11.69,31.8843Z"/><path class="a" d="M41.7893,41.693H39.2464a1.1126,1.1126,0,0,0-.2.02,6.7176,6.7176,0,1,0,.5668,3.0287l1.8421-.0209a12.0407,12.0407,0,0,1-.2494,3.9761,17.4785,17.4785,0,0,0-.2956,5.6683,1.1148,1.1148,0,0,0,1.1036.9679,1.0971,1.0971,0,0,0,.1482-.01,1.1146,1.1146,0,0,0,.958-1.2519,15.4041,15.4041,0,0,1,.2819-4.99,11.6092,11.6092,0,0,0-.2717-6.7158A1.11,1.11,0,0,0,41.7893,41.693ZM32.9167,48.25a3.8143,3.8143,0,1,1,3.8142-3.8143A3.8186,3.8186,0,0,1,32.9167,48.25Z"/></svg>