<?xml version="1.0" encoding="utf-8"?>
<svg version="1.1" id="Stripe_Logo_1_" xmlns="http://www.w3.org/2000/svg" xmlns:xlink="http://www.w3.org/1999/xlink" x="0px"
	 y="0px" viewBox="0 0 451.3 187.3" style="enable-background:new 0 0 451.3 187.3;" xml:space="preserve">
<path id="Stripe_Logo" d="M396.2,87.3c0.9-14.8,4.9-21.7,12.5-21.7c7.5,0,11.3,7.1,11.9,21.7H396.2z M451.7,96.1
	c0-16.5-3.6-29.6-10.7-38.8c-7.2-9.3-18-14.1-31.7-14.1c-28.1,0-45.6,20.8-45.6,54.1c0,18.7,4.7,32.7,13.9,41.6
	c8.3,8,20.1,12,35.5,12c14.1,0,27.2-3.3,35.5-8.8l-3.6-22.7c-8.1,4.4-17.6,6.8-28.3,6.8c-6.4,0-10.8-1.3-14-4.1
	c-3.5-2.9-5.5-7.7-6.1-14.5h54.8C451.4,106,451.7,98.5,451.7,96.1z M319.4,118.5c-2.7,5.1-6.8,7.7-11.6,7.7c-3.3,0-6.3-0.7-8.9-2
	V74.9c5.6-5.9,10.7-6.5,12.5-6.5c8.4,0,12.5,9.1,12.5,26.8C323.9,105.3,322.5,113.2,319.4,118.5z M346.9,54.5
	c-5.9-7.6-14-11.3-24.4-11.3c-9.6,0-18,4-25.9,12.4l-1.7-10.4h-29.1v142.1l33.1-5.5v-33.3c5.1,1.6,10.3,2.4,14.9,2.4
	c8.3,0,20.3-2.1,29.6-12.3c8.9-9.7,13.5-24.8,13.5-44.7C356.9,76.4,353.5,63.1,346.9,54.5z M219.6,45.2h33.2v103.7h-33.2V45.2z
	 M236.3,34.9c9.6,0,17.3-7.9,17.3-17.5c0-9.7-7.7-17.5-17.3-17.5c-9.7,0-17.5,7.7-17.5,17.5C218.8,27.1,226.5,34.9,236.3,34.9z
	 M205.3,43.8c-9.3,0-16.8,4.9-19.7,13.7l-2-12.3h-28.9v103.7h33.1V81.6c4.1-5.1,10-6.9,18-6.9c1.7,0,3.6,0,5.9,0.4V44.6
	C209.3,44,207.3,43.8,205.3,43.8z M141.9,69.7l4-24.5h-21.1V15.4l-28.4,4.7l-4.1,25.1l-10,1.6l-3.7,22.9h13.7v48.1
	c0,12.5,3.2,21.2,9.7,26.5c5.5,4.4,13.3,6.5,24.4,6.5c8.5,0,13.7-1.5,17.3-2.4v-26c-2,0.5-6.5,1.5-9.6,1.5c-6.5,0-9.3-3.3-9.3-10.9
	V69.7H141.9z M47.2,84.3c-9.7-3.6-15.1-6.4-15.1-10.8c0-3.7,3.1-5.9,8.5-5.9c10,0,20.3,3.9,27.3,7.3l4-24.7
	c-5.6-2.7-17.1-7.1-32.9-7.1c-11.2,0-20.5,2.9-27.2,8.4c-6.9,5.7-10.5,14-10.5,24c0,18.1,11.1,25.9,29.1,32.4
	c11.6,4.1,15.5,7.1,15.5,11.6c0,4.4-3.7,6.9-10.5,6.9c-8.4,0-22.3-4.1-31.3-9.5L0,142c7.7,4.4,22.1,8.9,37.1,8.9
	c11.9,0,21.7-2.8,28.4-8.1c7.5-5.9,11.3-14.5,11.3-25.7C76.8,98.5,65.5,90.8,47.2,84.3L47.2,84.3z"/>
</svg>
